<svg width="25" height="25" viewBox="0 0 25 25" fill="none" xmlns="http://www.w3.org/2000/svg">
<path d="M20 2.24926V6.74946C20 6.94838 19.9189 7.13916 19.7747 7.27982C19.6304 7.42047 19.4348 7.4995 19.2308 7.4995H14.6155C14.4633 7.49961 14.3145 7.45569 14.1878 7.37328C14.0612 7.29087 13.9626 7.17369 13.9043 7.03657C13.846 6.89944 13.8308 6.74855 13.8605 6.60298C13.8902 6.45741 13.9636 6.32371 14.0713 6.21881L15.7059 4.62499L14.6915 3.72026L14.6674 3.69776C13.5983 2.65567 12.238 1.94386 10.7563 1.65124C9.27472 1.35863 7.73753 1.49818 6.33678 2.05247C4.93603 2.60676 3.73384 3.55121 2.88037 4.76784C2.02691 5.98447 1.56002 7.41933 1.53803 8.89319C1.51604 10.367 1.93992 11.8146 2.75672 13.0549C3.57352 14.2952 4.74703 15.2734 6.13064 15.8671C7.51426 16.4609 9.04664 16.644 10.5364 16.3936C12.0261 16.1431 13.4071 15.4702 14.5069 14.4589C14.5803 14.3912 14.6667 14.3382 14.7611 14.303C14.8555 14.2679 14.9561 14.2512 15.0571 14.2539C15.1581 14.2567 15.2576 14.2788 15.3499 14.319C15.4421 14.3593 15.5254 14.4168 15.5948 14.4884C15.6643 14.56 15.7186 14.6442 15.7546 14.7363C15.7907 14.8283 15.8078 14.9264 15.805 15.0249C15.8022 15.1234 15.7795 15.2204 15.7382 15.3104C15.697 15.4004 15.6379 15.4815 15.5645 15.5492C13.8542 17.1285 11.5865 18.0059 9.23104 18H9.10412C7.59237 17.9798 6.10884 17.5978 4.78394 16.8877C3.45904 16.1775 2.33331 15.1609 1.50572 13.9272C0.67812 12.6934 0.173985 11.2804 0.0376231 9.81218C-0.0987392 8.34399 0.136846 6.86561 0.723672 5.50699C1.3105 4.14837 2.2306 2.95109 3.4031 2.0204C4.57561 1.0897 5.96462 0.454086 7.44806 0.169408C8.93149 -0.11527 10.4639 -0.0402906 11.9107 0.387755C13.3574 0.815801 14.6742 1.58381 15.7453 2.62428L16.7962 3.56182L18.6866 1.71486C18.7944 1.60962 18.9318 1.53801 19.0815 1.50914C19.2311 1.48026 19.3862 1.49543 19.527 1.55272C19.6678 1.61 19.7879 1.70681 19.8722 1.83084C19.9564 1.95486 20.0009 2.10051 20 2.24926Z" fill="#343330"/>
</svg>
