<svg width="24" height="17" viewBox="0 0 24 17" fill="none" xmlns="http://www.w3.org/2000/svg">
<path d="M5.61115 9.6418C5.61386 9.69412 5.60552 9.74643 5.58664 9.79555C5.56775 9.84466 5.53871 9.88955 5.50129 9.92749C5.46387 9.96543 5.41884 9.99562 5.36896 10.0162C5.31907 10.0368 5.26536 10.0474 5.2111 10.0474H0.798548C0.617961 10.0476 0.442592 9.9889 0.300959 9.88073C0.159326 9.77256 0.05976 9.6213 0.0184508 9.45156C-0.00727143 9.33539 -0.00608565 9.21515 0.0219233 9.09947C0.0499323 8.98378 0.104072 8.8755 0.180471 8.78237C0.886368 7.87851 1.82297 7.16684 2.89881 6.71686C2.42648 6.30106 2.06421 5.78203 1.84235 5.20325C1.6205 4.62447 1.54551 4.00279 1.62366 3.39027C1.70182 2.77775 1.93085 2.19223 2.29157 1.68275C2.65229 1.17327 3.1342 0.754663 3.69694 0.461985C4.25967 0.169307 4.88685 0.0110821 5.52595 0.000561384C6.16504 -0.00995933 6.79744 0.127531 7.37018 0.401516C7.94292 0.675502 8.43933 1.07801 8.81783 1.57532C9.19633 2.07263 9.4459 2.65027 9.54564 3.25986C9.55852 3.34183 9.54331 3.42563 9.50233 3.49849C9.46135 3.57135 9.39684 3.62929 9.31861 3.6635C8.20886 4.15885 7.26902 4.95035 6.60998 5.94461C5.95094 6.93888 5.6002 8.0944 5.59915 9.27485C5.59915 9.39845 5.59915 9.52013 5.61115 9.6418ZM23.8134 8.78141C23.1092 7.87859 22.1747 7.16731 21.1011 6.71686C21.5734 6.30106 21.9357 5.78203 22.1575 5.20325C22.3794 4.62447 22.4544 4.00279 22.3762 3.39027C22.2981 2.77775 22.069 2.19223 21.7083 1.68275C21.3476 1.17327 20.8657 0.754663 20.303 0.461985C19.7402 0.169307 19.113 0.0110821 18.4739 0.000561384C17.8349 -0.00995933 17.2025 0.127531 16.6297 0.401516C16.057 0.675502 15.5606 1.07801 15.1821 1.57532C14.8036 2.07263 14.554 2.65027 14.4543 3.25986C14.4414 3.34183 14.4566 3.42563 14.4976 3.49849C14.5385 3.57135 14.6031 3.62929 14.6813 3.6635C15.791 4.15885 16.7309 4.95035 17.3899 5.94461C18.049 6.93888 18.3997 8.0944 18.4007 9.27485C18.4007 9.39845 18.4007 9.52013 18.3887 9.6418C18.386 9.69412 18.3944 9.74643 18.4133 9.79555C18.4321 9.84466 18.4612 9.88955 18.4986 9.92749C18.536 9.96543 18.581 9.99562 18.6309 10.0162C18.6808 10.0368 18.7345 10.0474 18.7888 10.0474H23.2013C23.3819 10.0476 23.5573 9.9889 23.6989 9.88073C23.8406 9.77256 23.9401 9.6213 23.9814 9.45156C24.0073 9.33517 24.0061 9.21469 23.9779 9.0988C23.9497 8.98291 23.8953 8.8745 23.8184 8.78141H23.8134ZM14.9123 12.9511C15.709 12.362 16.2944 11.5467 16.5864 10.6198C16.8783 9.69283 16.8621 8.70088 16.54 7.78331C16.2179 6.86574 15.6061 6.06869 14.7906 5.50417C13.9751 4.93966 12.9969 4.63607 11.9934 4.63607C10.99 4.63607 10.0118 4.93966 9.19629 5.50417C8.38079 6.06869 7.76899 6.86574 7.44689 7.78331C7.12479 8.70088 7.10858 9.69283 7.40053 10.6198C7.69249 11.5467 8.27793 12.362 9.07458 12.9511C7.66094 13.5424 6.48052 14.5553 5.70616 15.8412C5.63593 15.9587 5.59896 16.0919 5.59897 16.2275C5.59898 16.3631 5.63596 16.4964 5.70621 16.6138C5.77645 16.7313 5.87748 16.8288 5.99913 16.8966C6.12079 16.9644 6.25878 17 6.39925 17H17.6006C17.7411 17 17.8791 16.9644 18.0008 16.8966C18.1224 16.8288 18.2234 16.7313 18.2937 16.6138C18.3639 16.4964 18.4009 16.3631 18.4009 16.2275C18.4009 16.0919 18.364 15.9587 18.2937 15.8412C17.5177 14.5544 16.3351 13.5415 14.9193 12.9511H14.9123Z" fill="white"/>
</svg>
